<svg height="9358" width="720" xmlns="http://www.w3.org/2000/svg">
<rect height="9358" fill="#555" width="720"></rect>
<text fill="#7f7" font-family="Courier New" font-size="12" xml:space="preserve">
<tspan x="10" y="26">69 megabytes installed</tspan>
<tspan x="10" y="42"></tspan>
<tspan x="10" y="58">node_modules</tspan>
<tspan x="10" y="74">└─┬ nuxt@0.10.6 </tspan>
<tspan x="10" y="90">  ├── ansi-html@0.0.7 </tspan>
<tspan x="10" y="106">  ├─┬ autoprefixer@6.7.7 </tspan>
<tspan x="10" y="122">  │ ├─┬ browserslist@1.7.7 </tspan>
<tspan x="10" y="138">  │ │ └── electron-to-chromium@1.3.8 </tspan>
<tspan x="10" y="154">  │ ├── caniuse-db@1.0.30000662 </tspan>
<tspan x="10" y="170">  │ ├── normalize-range@0.1.2 </tspan>
<tspan x="10" y="186">  │ ├── num2fraction@1.2.2 </tspan>
<tspan x="10" y="202">  │ ├─┬ postcss@5.2.17 </tspan>
<tspan x="10" y="218">  │ │ └── js-base64@2.1.9 </tspan>
<tspan x="10" y="234">  │ └── postcss-value-parser@3.3.0 </tspan>
<tspan x="10" y="250">  ├─┬ babel-core@6.24.1 </tspan>
<tspan x="10" y="266">  │ ├─┬ babel-code-frame@6.22.0 </tspan>
<tspan x="10" y="282">  │ │ ├── esutils@2.0.2 </tspan>
<tspan x="10" y="298">  │ │ └── js-tokens@3.0.1 </tspan>
<tspan x="10" y="314">  │ ├─┬ babel-generator@6.24.1 </tspan>
<tspan x="10" y="330">  │ │ ├─┬ detect-indent@4.0.0 </tspan>
<tspan x="10" y="346">  │ │ │ └─┬ repeating@2.0.1 </tspan>
<tspan x="10" y="362">  │ │ │   └── is-finite@1.0.2 </tspan>
<tspan x="10" y="378">  │ │ ├── jsesc@1.3.0 </tspan>
<tspan x="10" y="394">  │ │ └── trim-right@1.0.1 </tspan>
<tspan x="10" y="410">  │ ├── babel-helpers@6.24.1 </tspan>
<tspan x="10" y="426">  │ ├── babel-messages@6.23.0 </tspan>
<tspan x="10" y="442">  │ ├─┬ babel-register@6.24.1 </tspan>
<tspan x="10" y="458">  │ │ ├── core-js@2.4.1 </tspan>
<tspan x="10" y="474">  │ │ ├─┬ home-or-tmp@2.0.0 </tspan>
<tspan x="10" y="490">  │ │ │ ├── os-homedir@1.0.2 </tspan>
<tspan x="10" y="506">  │ │ │ └── os-tmpdir@1.0.2 </tspan>
<tspan x="10" y="522">  │ │ └── source-map-support@0.4.14 </tspan>
<tspan x="10" y="538">  │ ├─┬ babel-runtime@6.23.0 </tspan>
<tspan x="10" y="554">  │ │ └── regenerator-runtime@0.10.4 </tspan>
<tspan x="10" y="570">  │ ├── babel-template@6.24.1 </tspan>
<tspan x="10" y="586">  │ ├─┬ babel-traverse@6.24.1 </tspan>
<tspan x="10" y="602">  │ │ ├── globals@9.17.0 </tspan>
<tspan x="10" y="618">  │ │ └─┬ invariant@2.2.2 </tspan>
<tspan x="10" y="634">  │ │   └── loose-envify@1.3.1 </tspan>
<tspan x="10" y="650">  │ ├─┬ babel-types@6.24.1 </tspan>
<tspan x="10" y="666">  │ │ └── to-fast-properties@1.0.2 </tspan>
<tspan x="10" y="682">  │ ├── babylon@6.17.0 </tspan>
<tspan x="10" y="698">  │ ├── convert-source-map@1.5.0 </tspan>
<tspan x="10" y="714">  │ ├── json5@0.5.1 </tspan>
<tspan x="10" y="730">  │ ├─┬ minimatch@3.0.3 </tspan>
<tspan x="10" y="746">  │ │ └─┬ brace-expansion@1.1.7 </tspan>
<tspan x="10" y="762">  │ │   ├── balanced-match@0.4.2 </tspan>
<tspan x="10" y="778">  │ │   └── concat-map@0.0.1 </tspan>
<tspan x="10" y="794">  │ ├── path-is-absolute@1.0.1 </tspan>
<tspan x="10" y="810">  │ ├── private@0.1.7 </tspan>
<tspan x="10" y="826">  │ ├── slash@1.0.0 </tspan>
<tspan x="10" y="842">  │ └── source-map@0.5.6 </tspan>
<tspan x="10" y="858">  ├─┬ babel-loader@6.4.1 </tspan>
<tspan x="10" y="874">  │ ├─┬ find-cache-dir@0.1.1 </tspan>
<tspan x="10" y="890">  │ │ ├── commondir@1.0.1 </tspan>
<tspan x="10" y="906">  │ │ └─┬ pkg-dir@1.0.0 </tspan>
<tspan x="10" y="922">  │ │   └─┬ find-up@1.1.2 </tspan>
<tspan x="10" y="938">  │ │     ├── path-exists@2.1.0 </tspan>
<tspan x="10" y="954">  │ │     └─┬ pinkie-promise@2.0.1 </tspan>
<tspan x="10" y="970">  │ │       └── pinkie@2.0.4 </tspan>
<tspan x="10" y="986">  │ ├─┬ loader-utils@0.2.17 </tspan>
<tspan x="10" y="1002">  │ │ ├── big.js@3.1.3 </tspan>
<tspan x="10" y="1018">  │ │ └── emojis-list@2.1.0 </tspan>
<tspan x="10" y="1034">  │ ├─┬ mkdirp@0.5.1 </tspan>
<tspan x="10" y="1050">  │ │ └── minimist@0.0.8 </tspan>
<tspan x="10" y="1066">  │ └── object-assign@4.1.1 </tspan>
<tspan x="10" y="1082">  ├─┬ babel-preset-es2015@6.24.1 </tspan>
<tspan x="10" y="1098">  │ ├── babel-plugin-check-es2015-constants@6.22.0 </tspan>
<tspan x="10" y="1114">  │ ├── babel-plugin-transform-es2015-arrow-functions@6.22.0 </tspan>
<tspan x="10" y="1130">  │ ├── babel-plugin-transform-es2015-block-scoped-functions@6.22.0 </tspan>
<tspan x="10" y="1146">  │ ├── babel-plugin-transform-es2015-block-scoping@6.24.1 </tspan>
<tspan x="10" y="1162">  │ ├─┬ babel-plugin-transform-es2015-classes@6.24.1 </tspan>
<tspan x="10" y="1178">  │ │ ├── babel-helper-define-map@6.24.1 </tspan>
<tspan x="10" y="1194">  │ │ ├── babel-helper-function-name@6.24.1 </tspan>
<tspan x="10" y="1210">  │ │ ├── babel-helper-optimise-call-expression@6.24.1 </tspan>
<tspan x="10" y="1226">  │ │ └── babel-helper-replace-supers@6.24.1 </tspan>
<tspan x="10" y="1242">  │ ├── babel-plugin-transform-es2015-computed-properties@6.24.1 </tspan>
<tspan x="10" y="1258">  │ ├── babel-plugin-transform-es2015-destructuring@6.23.0 </tspan>
<tspan x="10" y="1274">  │ ├── babel-plugin-transform-es2015-duplicate-keys@6.24.1 </tspan>
<tspan x="10" y="1290">  │ ├── babel-plugin-transform-es2015-for-of@6.23.0 </tspan>
<tspan x="10" y="1306">  │ ├── babel-plugin-transform-es2015-function-name@6.24.1 </tspan>
<tspan x="10" y="1322">  │ ├── babel-plugin-transform-es2015-literals@6.22.0 </tspan>
<tspan x="10" y="1338">  │ ├── babel-plugin-transform-es2015-modules-amd@6.24.1 </tspan>
<tspan x="10" y="1354">  │ ├─┬ babel-plugin-transform-es2015-modules-commonjs@6.24.1 </tspan>
<tspan x="10" y="1370">  │ │ └── babel-plugin-transform-strict-mode@6.24.1 </tspan>
<tspan x="10" y="1386">  │ ├─┬ babel-plugin-transform-es2015-modules-systemjs@6.24.1 </tspan>
<tspan x="10" y="1402">  │ │ └── babel-helper-hoist-variables@6.24.1 </tspan>
<tspan x="10" y="1418">  │ ├── babel-plugin-transform-es2015-modules-umd@6.24.1 </tspan>
<tspan x="10" y="1434">  │ ├── babel-plugin-transform-es2015-object-super@6.24.1 </tspan>
<tspan x="10" y="1450">  │ ├─┬ babel-plugin-transform-es2015-parameters@6.24.1 </tspan>
<tspan x="10" y="1466">  │ │ ├── babel-helper-call-delegate@6.24.1 </tspan>
<tspan x="10" y="1482">  │ │ └── babel-helper-get-function-arity@6.24.1 </tspan>
<tspan x="10" y="1498">  │ ├── babel-plugin-transform-es2015-shorthand-properties@6.24.1 </tspan>
<tspan x="10" y="1514">  │ ├── babel-plugin-transform-es2015-spread@6.22.0 </tspan>
<tspan x="10" y="1530">  │ ├─┬ babel-plugin-transform-es2015-sticky-regex@6.24.1 </tspan>
<tspan x="10" y="1546">  │ │ └── babel-helper-regex@6.24.1 </tspan>
<tspan x="10" y="1562">  │ ├── babel-plugin-transform-es2015-template-literals@6.22.0 </tspan>
<tspan x="10" y="1578">  │ ├── babel-plugin-transform-es2015-typeof-symbol@6.23.0 </tspan>
<tspan x="10" y="1594">  │ ├─┬ babel-plugin-transform-es2015-unicode-regex@6.24.1 </tspan>
<tspan x="10" y="1610">  │ │ └─┬ regexpu-core@2.0.0 </tspan>
<tspan x="10" y="1626">  │ │   ├── regenerate@1.3.2 </tspan>
<tspan x="10" y="1642">  │ │   ├── regjsgen@0.2.0 </tspan>
<tspan x="10" y="1658">  │ │   └─┬ regjsparser@0.1.5 </tspan>
<tspan x="10" y="1674">  │ │     └── jsesc@0.5.0 </tspan>
<tspan x="10" y="1690">  │ └─┬ babel-plugin-transform-regenerator@6.24.1 </tspan>
<tspan x="10" y="1706">  │   └── regenerator-transform@0.9.11 </tspan>
<tspan x="10" y="1722">  ├─┬ babel-preset-vue-app@1.2.0 </tspan>
<tspan x="10" y="1738">  │ ├── babel-plugin-syntax-dynamic-import@6.18.0 </tspan>
<tspan x="10" y="1754">  │ ├─┬ babel-plugin-transform-object-rest-spread@6.23.0 </tspan>
<tspan x="10" y="1770">  │ │ └── babel-plugin-syntax-object-rest-spread@6.13.0 </tspan>
<tspan x="10" y="1786">  │ ├── babel-plugin-transform-runtime@6.23.0 </tspan>
<tspan x="10" y="1802">  │ ├─┬ babel-preset-env@1.4.0 </tspan>
<tspan x="10" y="1818">  │ │ ├── babel-plugin-syntax-trailing-function-commas@6.22.0 </tspan>
<tspan x="10" y="1834">  │ │ ├─┬ babel-plugin-transform-async-to-generator@6.24.1 </tspan>
<tspan x="10" y="1850">  │ │ │ ├── babel-helper-remap-async-to-generator@6.24.1 </tspan>
<tspan x="10" y="1866">  │ │ │ └── babel-plugin-syntax-async-functions@6.13.0 </tspan>
<tspan x="10" y="1882">  │ │ └─┬ babel-plugin-transform-exponentiation-operator@6.24.1 </tspan>
<tspan x="10" y="1898">  │ │   ├─┬ babel-helper-builder-binary-assignment-operator-visitor@6.24.1 </tspan>
<tspan x="10" y="1914">  │ │   │ └── babel-helper-explode-assignable-expression@6.24.1 </tspan>
<tspan x="10" y="1930">  │ │   └── babel-plugin-syntax-exponentiation-operator@6.13.0 </tspan>
<tspan x="10" y="1946">  │ └─┬ babel-preset-vue@0.1.0 </tspan>
<tspan x="10" y="1962">  │   ├── babel-helper-vue-jsx-merge-props@2.0.2 </tspan>
<tspan x="10" y="1978">  │   ├── babel-plugin-syntax-jsx@6.18.0 </tspan>
<tspan x="10" y="1994">  │   └── babel-plugin-transform-vue-jsx@3.4.2 </tspan>
<tspan x="10" y="2010">  ├─┬ chokidar@1.6.1 </tspan>
<tspan x="10" y="2026">  │ ├─┬ anymatch@1.3.0 </tspan>
<tspan x="10" y="2042">  │ │ ├── arrify@1.0.1 </tspan>
<tspan x="10" y="2058">  │ │ └─┬ micromatch@2.3.11 </tspan>
<tspan x="10" y="2074">  │ │   ├─┬ arr-diff@2.0.0 </tspan>
<tspan x="10" y="2090">  │ │   │ └── arr-flatten@1.0.3 </tspan>
<tspan x="10" y="2106">  │ │   ├── array-unique@0.2.1 </tspan>
<tspan x="10" y="2122">  │ │   ├─┬ braces@1.8.5 </tspan>
<tspan x="10" y="2138">  │ │   │ ├─┬ expand-range@1.8.2 </tspan>
<tspan x="10" y="2154">  │ │   │ │ └─┬ fill-range@2.2.3 </tspan>
<tspan x="10" y="2170">  │ │   │ │   ├── is-number@2.1.0 </tspan>
<tspan x="10" y="2186">  │ │   │ │   ├── isobject@2.1.0 </tspan>
<tspan x="10" y="2202">  │ │   │ │   ├── randomatic@1.1.6 </tspan>
<tspan x="10" y="2218">  │ │   │ │   └── repeat-string@1.6.1 </tspan>
<tspan x="10" y="2234">  │ │   │ ├── preserve@0.2.0 </tspan>
<tspan x="10" y="2250">  │ │   │ └── repeat-element@1.1.2 </tspan>
<tspan x="10" y="2266">  │ │   ├─┬ expand-brackets@0.1.5 </tspan>
<tspan x="10" y="2282">  │ │   │ └── is-posix-bracket@0.1.1 </tspan>
<tspan x="10" y="2298">  │ │   ├── extglob@0.3.2 </tspan>
<tspan x="10" y="2314">  │ │   ├── filename-regex@2.0.0 </tspan>
<tspan x="10" y="2330">  │ │   ├─┬ kind-of@3.2.0 </tspan>
<tspan x="10" y="2346">  │ │   │ └── is-buffer@1.1.5 </tspan>
<tspan x="10" y="2362">  │ │   ├─┬ normalize-path@2.1.1 </tspan>
<tspan x="10" y="2378">  │ │   │ └── remove-trailing-separator@1.0.1 </tspan>
<tspan x="10" y="2394">  │ │   ├─┬ object.omit@2.0.1 </tspan>
<tspan x="10" y="2410">  │ │   │ ├─┬ for-own@0.1.5 </tspan>
<tspan x="10" y="2426">  │ │   │ │ └── for-in@1.0.2 </tspan>
<tspan x="10" y="2442">  │ │   │ └── is-extendable@0.1.1 </tspan>
<tspan x="10" y="2458">  │ │   ├─┬ parse-glob@3.0.4 </tspan>
<tspan x="10" y="2474">  │ │   │ ├── glob-base@0.3.0 </tspan>
<tspan x="10" y="2490">  │ │   │ └── is-dotfile@1.0.2 </tspan>
<tspan x="10" y="2506">  │ │   └─┬ regex-cache@0.4.3 </tspan>
<tspan x="10" y="2522">  │ │     ├── is-equal-shallow@0.1.3 </tspan>
<tspan x="10" y="2538">  │ │     └── is-primitive@2.0.0 </tspan>
<tspan x="10" y="2554">  │ ├── async-each@1.0.1 </tspan>
<tspan x="10" y="2570">  │ ├── glob-parent@2.0.0 </tspan>
<tspan x="10" y="2586">  │ ├── inherits@2.0.3 </tspan>
<tspan x="10" y="2602">  │ ├─┬ is-binary-path@1.0.1 </tspan>
<tspan x="10" y="2618">  │ │ └── binary-extensions@1.8.0 </tspan>
<tspan x="10" y="2634">  │ ├─┬ is-glob@2.0.1 </tspan>
<tspan x="10" y="2650">  │ │ └── is-extglob@1.0.0 </tspan>
<tspan x="10" y="2666">  │ └─┬ readdirp@2.1.0 </tspan>
<tspan x="10" y="2682">  │   └── set-immediate-shim@1.0.1 </tspan>
<tspan x="10" y="2698">  ├── co@4.6.0 </tspan>
<tspan x="10" y="2714">  ├─┬ compression@1.6.2 </tspan>
<tspan x="10" y="2730">  │ ├─┬ accepts@1.3.3 </tspan>
<tspan x="10" y="2746">  │ │ ├── mime-types@2.1.15 </tspan>
<tspan x="10" y="2762">  │ │ └── negotiator@0.6.1 </tspan>
<tspan x="10" y="2778">  │ ├── bytes@2.3.0 </tspan>
<tspan x="10" y="2794">  │ ├─┬ compressible@2.0.10 </tspan>
<tspan x="10" y="2810">  │ │ └── mime-db@1.27.0 </tspan>
<tspan x="10" y="2826">  │ ├─┬ debug@2.2.0 </tspan>
<tspan x="10" y="2842">  │ │ └── ms@0.7.1 </tspan>
<tspan x="10" y="2858">  │ ├── on-headers@1.0.1 </tspan>
<tspan x="10" y="2874">  │ └── vary@1.1.1 </tspan>
<tspan x="10" y="2890">  ├─┬ css-loader@0.28.0 </tspan>
<tspan x="10" y="2906">  │ ├─┬ css-selector-tokenizer@0.7.0 </tspan>
<tspan x="10" y="2922">  │ │ ├── cssesc@0.1.0 </tspan>
<tspan x="10" y="2938">  │ │ ├── fastparse@1.1.1 </tspan>
<tspan x="10" y="2954">  │ │ └── regexpu-core@1.0.0 </tspan>
<tspan x="10" y="2970">  │ ├─┬ cssnano@3.10.0 </tspan>
<tspan x="10" y="2986">  │ │ ├── decamelize@1.2.0 </tspan>
<tspan x="10" y="3002">  │ │ ├── defined@1.0.0 </tspan>
<tspan x="10" y="3018">  │ │ ├── has@1.0.1 </tspan>
<tspan x="10" y="3034">  │ │ ├─┬ postcss-calc@5.3.1 </tspan>
<tspan x="10" y="3050">  │ │ │ ├── postcss-message-helpers@2.0.0 </tspan>
<tspan x="10" y="3066">  │ │ │ └─┬ reduce-css-calc@1.3.0 </tspan>
<tspan x="10" y="3082">  │ │ │   ├── math-expression-evaluator@1.2.16 </tspan>
<tspan x="10" y="3098">  │ │ │   └── reduce-function-call@1.0.2 </tspan>
<tspan x="10" y="3114">  │ │ ├─┬ postcss-colormin@2.2.2 </tspan>
<tspan x="10" y="3130">  │ │ │ └─┬ colormin@1.1.2 </tspan>
<tspan x="10" y="3146">  │ │ │   ├─┬ color@0.11.4 </tspan>
<tspan x="10" y="3162">  │ │ │   │ ├── clone@1.0.2 </tspan>
<tspan x="10" y="3178">  │ │ │   │ ├─┬ color-convert@1.9.0 </tspan>
<tspan x="10" y="3194">  │ │ │   │ │ └── color-name@1.1.2 </tspan>
<tspan x="10" y="3210">  │ │ │   │ └── color-string@0.3.0 </tspan>
<tspan x="10" y="3226">  │ │ │   └── css-color-names@0.0.4 </tspan>
<tspan x="10" y="3242">  │ │ ├── postcss-convert-values@2.6.1 </tspan>
<tspan x="10" y="3258">  │ │ ├── postcss-discard-comments@2.0.4 </tspan>
<tspan x="10" y="3274">  │ │ ├── postcss-discard-duplicates@2.1.0 </tspan>
<tspan x="10" y="3290">  │ │ ├── postcss-discard-empty@2.1.0 </tspan>
<tspan x="10" y="3306">  │ │ ├── postcss-discard-overridden@0.1.1 </tspan>
<tspan x="10" y="3322">  │ │ ├─┬ postcss-discard-unused@2.2.3 </tspan>
<tspan x="10" y="3338">  │ │ │ └── uniqs@2.0.0 </tspan>
<tspan x="10" y="3354">  │ │ ├─┬ postcss-filter-plugins@2.0.2 </tspan>
<tspan x="10" y="3370">  │ │ │ └─┬ uniqid@4.1.1 </tspan>
<tspan x="10" y="3386">  │ │ │   └── macaddress@0.2.8 </tspan>
<tspan x="10" y="3402">  │ │ ├── postcss-merge-idents@2.1.7 </tspan>
<tspan x="10" y="3418">  │ │ ├── postcss-merge-longhand@2.0.2 </tspan>
<tspan x="10" y="3434">  │ │ ├─┬ postcss-merge-rules@2.1.2 </tspan>
<tspan x="10" y="3450">  │ │ │ ├─┬ caniuse-api@1.6.1 </tspan>
<tspan x="10" y="3466">  │ │ │ │ ├── lodash.memoize@4.1.2 </tspan>
<tspan x="10" y="3482">  │ │ │ │ └── lodash.uniq@4.5.0 </tspan>
<tspan x="10" y="3498">  │ │ │ └── vendors@1.0.1 </tspan>
<tspan x="10" y="3514">  │ │ ├── postcss-minify-font-values@1.0.5 </tspan>
<tspan x="10" y="3530">  │ │ ├── postcss-minify-gradients@1.0.5 </tspan>
<tspan x="10" y="3546">  │ │ ├─┬ postcss-minify-params@1.2.2 </tspan>
<tspan x="10" y="3562">  │ │ │ └── alphanum-sort@1.0.2 </tspan>
<tspan x="10" y="3578">  │ │ ├── postcss-minify-selectors@2.1.1 </tspan>
<tspan x="10" y="3594">  │ │ ├── postcss-normalize-charset@1.1.1 </tspan>
<tspan x="10" y="3610">  │ │ ├─┬ postcss-normalize-url@3.0.8 </tspan>
<tspan x="10" y="3626">  │ │ │ ├── is-absolute-url@2.1.0 </tspan>
<tspan x="10" y="3642">  │ │ │ └─┬ normalize-url@1.9.1 </tspan>
<tspan x="10" y="3658">  │ │ │   ├── prepend-http@1.0.4 </tspan>
<tspan x="10" y="3674">  │ │ │   ├─┬ query-string@4.3.4 </tspan>
<tspan x="10" y="3690">  │ │ │   │ └── strict-uri-encode@1.1.0 </tspan>
<tspan x="10" y="3706">  │ │ │   └─┬ sort-keys@1.1.2 </tspan>
<tspan x="10" y="3722">  │ │ │     └── is-plain-obj@1.1.0 </tspan>
<tspan x="10" y="3738">  │ │ ├── postcss-ordered-values@2.2.3 </tspan>
<tspan x="10" y="3754">  │ │ ├── postcss-reduce-idents@2.4.0 </tspan>
<tspan x="10" y="3770">  │ │ ├── postcss-reduce-initial@1.0.1 </tspan>
<tspan x="10" y="3786">  │ │ ├── postcss-reduce-transforms@1.0.4 </tspan>
<tspan x="10" y="3802">  │ │ ├─┬ postcss-svgo@2.1.6 </tspan>
<tspan x="10" y="3818">  │ │ │ ├─┬ is-svg@2.1.0 </tspan>
<tspan x="10" y="3834">  │ │ │ │ └── html-comment-regex@1.1.1 </tspan>
<tspan x="10" y="3850">  │ │ │ └─┬ svgo@0.7.2 </tspan>
<tspan x="10" y="3866">  │ │ │   ├─┬ coa@1.0.1 </tspan>
<tspan x="10" y="3882">  │ │ │   │ └── q@1.5.0 </tspan>
<tspan x="10" y="3898">  │ │ │   ├── colors@1.1.2 </tspan>
<tspan x="10" y="3914">  │ │ │   ├─┬ csso@2.3.2 </tspan>
<tspan x="10" y="3930">  │ │ │   │ └── clap@1.1.3 </tspan>
<tspan x="10" y="3946">  │ │ │   ├── sax@1.2.2 </tspan>
<tspan x="10" y="3962">  │ │ │   └── whet.extend@0.9.9 </tspan>
<tspan x="10" y="3978">  │ │ ├── postcss-unique-selectors@2.0.2 </tspan>
<tspan x="10" y="3994">  │ │ └── postcss-zindex@2.2.0 </tspan>
<tspan x="10" y="4010">  │ ├── loader-utils@1.1.0 </tspan>
<tspan x="10" y="4026">  │ ├── lodash.camelcase@4.3.0 </tspan>
<tspan x="10" y="4042">  │ ├── postcss-modules-extract-imports@1.0.1 </tspan>
<tspan x="10" y="4058">  │ ├─┬ postcss-modules-local-by-default@1.1.1 </tspan>
<tspan x="10" y="4074">  │ │ └─┬ css-selector-tokenizer@0.6.0 </tspan>
<tspan x="10" y="4090">  │ │   └── regexpu-core@1.0.0 </tspan>
<tspan x="10" y="4106">  │ ├─┬ postcss-modules-scope@1.0.2 </tspan>
<tspan x="10" y="4122">  │ │ └─┬ css-selector-tokenizer@0.6.0 </tspan>
<tspan x="10" y="4138">  │ │   └── regexpu-core@1.0.0 </tspan>
<tspan x="10" y="4154">  │ ├─┬ postcss-modules-values@1.2.2 </tspan>
<tspan x="10" y="4170">  │ │ └── icss-replace-symbols@1.0.2 </tspan>
<tspan x="10" y="4186">  │ └── source-list-map@0.1.8 </tspan>
<tspan x="10" y="4202">  ├─┬ debug@2.6.5 </tspan>
<tspan x="10" y="4218">  │ └── ms@0.7.3 </tspan>
<tspan x="10" y="4234">  ├─┬ file-loader@0.11.1 </tspan>
<tspan x="10" y="4250">  │ └── loader-utils@1.1.0 </tspan>
<tspan x="10" y="4266">  ├─┬ friendly-errors-webpack-plugin@1.6.1 </tspan>
<tspan x="10" y="4282">  │ ├─┬ chalk@1.1.3 </tspan>
<tspan x="10" y="4298">  │ │ ├── ansi-styles@2.2.1 </tspan>
<tspan x="10" y="4314">  │ │ ├── escape-string-regexp@1.0.5 </tspan>
<tspan x="10" y="4330">  │ │ ├── has-ansi@2.0.0 </tspan>
<tspan x="10" y="4346">  │ │ └── supports-color@2.0.0 </tspan>
<tspan x="10" y="4362">  │ ├─┬ error-stack-parser@2.0.0 </tspan>
<tspan x="10" y="4378">  │ │ └── stackframe@1.0.2 </tspan>
<tspan x="10" y="4394">  │ └── string-length@1.0.1 </tspan>
<tspan x="10" y="4410">  ├─┬ fs-extra@2.1.2 </tspan>
<tspan x="10" y="4426">  │ ├── graceful-fs@4.1.11 </tspan>
<tspan x="10" y="4442">  │ └── jsonfile@2.4.0 </tspan>
<tspan x="10" y="4458">  ├─┬ glob@7.1.1 </tspan>
<tspan x="10" y="4474">  │ ├── fs.realpath@1.0.0 </tspan>
<tspan x="10" y="4490">  │ ├─┬ inflight@1.0.6 </tspan>
<tspan x="10" y="4506">  │ │ └── wrappy@1.0.2 </tspan>
<tspan x="10" y="4522">  │ └── once@1.4.0 </tspan>
<tspan x="10" y="4538">  ├── hash-sum@1.0.2 </tspan>
<tspan x="10" y="4554">  ├─┬ html-minifier@3.4.3 </tspan>
<tspan x="10" y="4570">  │ ├─┬ camel-case@3.0.0 </tspan>
<tspan x="10" y="4586">  │ │ ├─┬ no-case@2.3.1 </tspan>
<tspan x="10" y="4602">  │ │ │ └── lower-case@1.1.4 </tspan>
<tspan x="10" y="4618">  │ │ └── upper-case@1.1.3 </tspan>
<tspan x="10" y="4634">  │ ├── clean-css@4.0.12 </tspan>
<tspan x="10" y="4650">  │ ├─┬ commander@2.9.0 </tspan>
<tspan x="10" y="4666">  │ │ └── graceful-readlink@1.0.1 </tspan>
<tspan x="10" y="4682">  │ ├── he@1.1.1 </tspan>
<tspan x="10" y="4698">  │ ├─┬ ncname@1.0.0 </tspan>
<tspan x="10" y="4714">  │ │ └── xml-char-classes@1.0.0 </tspan>
<tspan x="10" y="4730">  │ ├── param-case@2.1.1 </tspan>
<tspan x="10" y="4746">  │ ├── relateurl@0.2.7 </tspan>
<tspan x="10" y="4762">  │ └─┬ uglify-js@2.8.22 </tspan>
<tspan x="10" y="4778">  │   ├── uglify-to-browserify@1.0.2 </tspan>
<tspan x="10" y="4794">  │   └─┬ yargs@3.10.0 </tspan>
<tspan x="10" y="4810">  │     ├── camelcase@1.2.1 </tspan>
<tspan x="10" y="4826">  │     ├─┬ cliui@2.1.0 </tspan>
<tspan x="10" y="4842">  │     │ ├─┬ center-align@0.1.3 </tspan>
<tspan x="10" y="4858">  │     │ │ ├─┬ align-text@0.1.4 </tspan>
<tspan x="10" y="4874">  │     │ │ │ └── longest@1.0.1 </tspan>
<tspan x="10" y="4890">  │     │ │ └── lazy-cache@1.0.4 </tspan>
<tspan x="10" y="4906">  │     │ ├── right-align@0.1.3 </tspan>
<tspan x="10" y="4922">  │     │ └── wordwrap@0.0.2 </tspan>
<tspan x="10" y="4938">  │     └── window-size@0.1.0 </tspan>
<tspan x="10" y="4954">  ├─┬ html-webpack-plugin@2.28.0 </tspan>
<tspan x="10" y="4970">  │ ├── bluebird@3.5.0 </tspan>
<tspan x="10" y="4986">  │ ├─┬ pretty-error@2.1.0 </tspan>
<tspan x="10" y="5002">  │ │ ├─┬ renderkid@2.0.1 </tspan>
<tspan x="10" y="5018">  │ │ │ ├─┬ css-select@1.2.0 </tspan>
<tspan x="10" y="5034">  │ │ │ │ ├── boolbase@1.0.0 </tspan>
<tspan x="10" y="5050">  │ │ │ │ ├── css-what@2.1.0 </tspan>
<tspan x="10" y="5066">  │ │ │ │ ├─┬ domutils@1.5.1 </tspan>
<tspan x="10" y="5082">  │ │ │ │ │ └─┬ dom-serializer@0.1.0 </tspan>
<tspan x="10" y="5098">  │ │ │ │ │   ├── domelementtype@1.1.3 </tspan>
<tspan x="10" y="5114">  │ │ │ │ │   └── entities@1.1.1 </tspan>
<tspan x="10" y="5130">  │ │ │ │ └── nth-check@1.0.1 </tspan>
<tspan x="10" y="5146">  │ │ │ ├─┬ dom-converter@0.1.4 </tspan>
<tspan x="10" y="5162">  │ │ │ │ └── utila@0.3.3 </tspan>
<tspan x="10" y="5178">  │ │ │ ├─┬ htmlparser2@3.3.0 </tspan>
<tspan x="10" y="5194">  │ │ │ │ ├── domelementtype@1.3.0 </tspan>
<tspan x="10" y="5210">  │ │ │ │ ├── domhandler@2.1.0 </tspan>
<tspan x="10" y="5226">  │ │ │ │ ├── domutils@1.1.6 </tspan>
<tspan x="10" y="5242">  │ │ │ │ └─┬ readable-stream@1.0.34 </tspan>
<tspan x="10" y="5258">  │ │ │ │   ├── isarray@0.0.1 </tspan>
<tspan x="10" y="5274">  │ │ │ │   └── string_decoder@0.10.31 </tspan>
<tspan x="10" y="5290">  │ │ │ └── utila@0.3.3 </tspan>
<tspan x="10" y="5306">  │ │ └── utila@0.4.0 </tspan>
<tspan x="10" y="5322">  │ └── toposort@1.0.3 </tspan>
<tspan x="10" y="5338">  ├── lodash@4.17.4 </tspan>
<tspan x="10" y="5354">  ├─┬ lru-cache@4.0.2 </tspan>
<tspan x="10" y="5370">  │ ├── pseudomap@1.0.2 </tspan>
<tspan x="10" y="5386">  │ └── yallist@2.1.2 </tspan>
<tspan x="10" y="5402">  ├─┬ memory-fs@0.4.1 </tspan>
<tspan x="10" y="5418">  │ ├─┬ errno@0.1.4 </tspan>
<tspan x="10" y="5434">  │ │ └── prr@0.0.0 </tspan>
<tspan x="10" y="5450">  │ └─┬ readable-stream@2.2.9 </tspan>
<tspan x="10" y="5466">  │   ├── buffer-shims@1.0.0 </tspan>
<tspan x="10" y="5482">  │   ├── core-util-is@1.0.2 </tspan>
<tspan x="10" y="5498">  │   ├── isarray@1.0.0 </tspan>
<tspan x="10" y="5514">  │   ├── process-nextick-args@1.0.7 </tspan>
<tspan x="10" y="5530">  │   ├── string_decoder@1.0.0 </tspan>
<tspan x="10" y="5546">  │   └── util-deprecate@1.0.2 </tspan>
<tspan x="10" y="5562">  ├─┬ offline-plugin@4.7.0 </tspan>
<tspan x="10" y="5578">  │ ├── deep-extend@0.4.1 </tspan>
<tspan x="10" y="5594">  │ └── ejs@2.5.6 </tspan>
<tspan x="10" y="5610">  ├── pify@2.3.0 </tspan>
<tspan x="10" y="5626">  ├── post-compile-webpack-plugin@0.1.1 </tspan>
<tspan x="10" y="5642">  ├── preload-webpack-plugin@1.2.2 </tspan>
<tspan x="10" y="5658">  ├─┬ progress-bar-webpack-plugin@1.9.3 </tspan>
<tspan x="10" y="5674">  │ ├─┬ object.assign@4.0.4 </tspan>
<tspan x="10" y="5690">  │ │ ├─┬ define-properties@1.1.2 </tspan>
<tspan x="10" y="5706">  │ │ │ └── foreach@2.0.5 </tspan>
<tspan x="10" y="5722">  │ │ ├── function-bind@1.1.0 </tspan>
<tspan x="10" y="5738">  │ │ └── object-keys@1.0.11 </tspan>
<tspan x="10" y="5754">  │ └── progress@1.1.8 </tspan>
<tspan x="10" y="5770">  ├── script-ext-html-webpack-plugin@1.7.1 </tspan>
<tspan x="10" y="5786">  ├── serialize-javascript@1.3.0 </tspan>
<tspan x="10" y="5802">  ├─┬ serve-static@1.12.2 </tspan>
<tspan x="10" y="5818">  │ ├── encodeurl@1.0.1 </tspan>
<tspan x="10" y="5834">  │ ├── escape-html@1.0.3 </tspan>
<tspan x="10" y="5850">  │ ├── parseurl@1.3.1 </tspan>
<tspan x="10" y="5866">  │ └─┬ send@0.15.2 </tspan>
<tspan x="10" y="5882">  │   ├─┬ debug@2.6.4 </tspan>
<tspan x="10" y="5898">  │   │ └── ms@0.7.3 </tspan>
<tspan x="10" y="5914">  │   ├── depd@1.1.0 </tspan>
<tspan x="10" y="5930">  │   ├── destroy@1.0.4 </tspan>
<tspan x="10" y="5946">  │   ├── etag@1.8.0 </tspan>
<tspan x="10" y="5962">  │   ├── fresh@0.5.0 </tspan>
<tspan x="10" y="5978">  │   ├── http-errors@1.6.1 </tspan>
<tspan x="10" y="5994">  │   ├── ms@1.0.0 </tspan>
<tspan x="10" y="6010">  │   ├─┬ on-finished@2.3.0 </tspan>
<tspan x="10" y="6026">  │   │ └── ee-first@1.1.1 </tspan>
<tspan x="10" y="6042">  │   └── statuses@1.3.1 </tspan>
<tspan x="10" y="6058">  ├─┬ url-loader@0.5.8 </tspan>
<tspan x="10" y="6074">  │ ├── loader-utils@1.1.0 </tspan>
<tspan x="10" y="6090">  │ └── mime@1.3.4 </tspan>
<tspan x="10" y="6106">  ├── vue@2.3.0 </tspan>
<tspan x="10" y="6122">  ├─┬ vue-loader@11.3.4 </tspan>
<tspan x="10" y="6138">  │ ├── consolidate@0.14.5 </tspan>
<tspan x="10" y="6154">  │ ├─┬ js-beautify@1.6.12 </tspan>
<tspan x="10" y="6170">  │ │ ├─┬ config-chain@1.1.11 </tspan>
<tspan x="10" y="6186">  │ │ │ ├── ini@1.3.4 </tspan>
<tspan x="10" y="6202">  │ │ │ └── proto-list@1.2.4 </tspan>
<tspan x="10" y="6218">  │ │ ├─┬ editorconfig@0.13.2 </tspan>
<tspan x="10" y="6234">  │ │ │ ├── lru-cache@3.2.0 </tspan>
<tspan x="10" y="6250">  │ │ │ └── sigmund@1.0.1 </tspan>
<tspan x="10" y="6266">  │ │ └─┬ nopt@3.0.6 </tspan>
<tspan x="10" y="6282">  │ │   └── abbrev@1.1.0 </tspan>
<tspan x="10" y="6298">  │ ├── loader-utils@1.1.0 </tspan>
<tspan x="10" y="6314">  │ ├─┬ postcss-load-config@1.2.0 </tspan>
<tspan x="10" y="6330">  │ │ ├─┬ cosmiconfig@2.1.2 </tspan>
<tspan x="10" y="6346">  │ │ │ ├── is-directory@0.3.1 </tspan>
<tspan x="10" y="6362">  │ │ │ ├─┬ js-yaml@3.7.0 </tspan>
<tspan x="10" y="6378">  │ │ │ │ ├─┬ argparse@1.0.9 </tspan>
<tspan x="10" y="6394">  │ │ │ │ │ └── sprintf-js@1.0.3 </tspan>
<tspan x="10" y="6410">  │ │ │ │ └── esprima@2.7.3 </tspan>
<tspan x="10" y="6426">  │ │ │ ├─┬ json-parse-helpfulerror@1.0.3 </tspan>
<tspan x="10" y="6442">  │ │ │ │ └── jju@1.3.0 </tspan>
<tspan x="10" y="6458">  │ │ │ ├── minimist@1.2.0 </tspan>
<tspan x="10" y="6474">  │ │ │ └── require-from-string@1.2.1 </tspan>
<tspan x="10" y="6490">  │ │ ├── postcss-load-options@1.2.0 </tspan>
<tspan x="10" y="6506">  │ │ └── postcss-load-plugins@2.3.0 </tspan>
<tspan x="10" y="6522">  │ ├─┬ postcss-selector-parser@2.2.3 </tspan>
<tspan x="10" y="6538">  │ │ ├── flatten@1.0.2 </tspan>
<tspan x="10" y="6554">  │ │ ├── indexes-of@1.0.1 </tspan>
<tspan x="10" y="6570">  │ │ └── uniq@1.0.1 </tspan>
<tspan x="10" y="6586">  │ ├── vue-hot-reload-api@2.1.0 </tspan>
<tspan x="10" y="6602">  │ ├─┬ vue-style-loader@2.0.5 </tspan>
<tspan x="10" y="6618">  │ │ └── loader-utils@1.1.0 </tspan>
<tspan x="10" y="6634">  │ └── vue-template-es2015-compiler@1.5.2 </tspan>
<tspan x="10" y="6650">  ├─┬ vue-meta@0.5.6 </tspan>
<tspan x="10" y="6666">  │ ├── deepmerge@1.3.2 </tspan>
<tspan x="10" y="6682">  │ └── lodash.isplainobject@4.0.6 </tspan>
<tspan x="10" y="6698">  ├── vue-router@2.5.2 </tspan>
<tspan x="10" y="6714">  ├─┬ vue-server-renderer@2.3.0 </tspan>
<tspan x="10" y="6730">  │ ├─┬ lodash.template@4.4.0 </tspan>
<tspan x="10" y="6746">  │ │ ├── lodash._reinterpolate@3.0.0 </tspan>
<tspan x="10" y="6762">  │ │ └── lodash.templatesettings@4.1.0 </tspan>
<tspan x="10" y="6778">  │ └─┬ resolve@1.3.3 </tspan>
<tspan x="10" y="6794">  │   └── path-parse@1.0.5 </tspan>
<tspan x="10" y="6810">  ├── vue-ssr-html-stream@2.2.0 </tspan>
<tspan x="10" y="6826">  ├── vue-ssr-webpack-plugin@3.0.0 </tspan>
<tspan x="10" y="6842">  ├─┬ vue-template-compiler@2.3.0 </tspan>
<tspan x="10" y="6858">  │ └── de-indent@1.0.2 </tspan>
<tspan x="10" y="6874">  ├── vuex@2.3.1 </tspan>
<tspan x="10" y="6890">  ├─┬ webpack@2.4.1 </tspan>
<tspan x="10" y="6906">  │ ├── acorn@5.0.3 </tspan>
<tspan x="10" y="6922">  │ ├─┬ acorn-dynamic-import@2.0.2 </tspan>
<tspan x="10" y="6938">  │ │ └── acorn@4.0.11 </tspan>
<tspan x="10" y="6954">  │ ├─┬ ajv@4.11.7 </tspan>
<tspan x="10" y="6970">  │ │ └─┬ json-stable-stringify@1.0.1 </tspan>
<tspan x="10" y="6986">  │ │   └── jsonify@0.0.0 </tspan>
<tspan x="10" y="7002">  │ ├── ajv-keywords@1.5.1 </tspan>
<tspan x="10" y="7018">  │ ├── async@2.3.0 </tspan>
<tspan x="10" y="7034">  │ ├── enhanced-resolve@3.1.0 </tspan>
<tspan x="10" y="7050">  │ ├── interpret@1.0.3 </tspan>
<tspan x="10" y="7066">  │ ├── json-loader@0.5.4 </tspan>
<tspan x="10" y="7082">  │ ├── loader-runner@2.3.0 </tspan>
<tspan x="10" y="7098">  │ ├─┬ node-libs-browser@2.0.0 </tspan>
<tspan x="10" y="7114">  │ │ ├── assert@1.4.1 </tspan>
<tspan x="10" y="7130">  │ │ ├─┬ browserify-zlib@0.1.4 </tspan>
<tspan x="10" y="7146">  │ │ │ └── pako@0.2.9 </tspan>
<tspan x="10" y="7162">  │ │ ├─┬ buffer@4.9.1 </tspan>
<tspan x="10" y="7178">  │ │ │ ├── base64-js@1.2.0 </tspan>
<tspan x="10" y="7194">  │ │ │ └── ieee754@1.1.8 </tspan>
<tspan x="10" y="7210">  │ │ ├─┬ console-browserify@1.1.0 </tspan>
<tspan x="10" y="7226">  │ │ │ └── date-now@0.1.4 </tspan>
<tspan x="10" y="7242">  │ │ ├── constants-browserify@1.0.0 </tspan>
<tspan x="10" y="7258">  │ │ ├─┬ crypto-browserify@3.11.0 </tspan>
<tspan x="10" y="7274">  │ │ │ ├─┬ browserify-cipher@1.0.0 </tspan>
<tspan x="10" y="7290">  │ │ │ │ ├─┬ browserify-aes@1.0.6 </tspan>
<tspan x="10" y="7306">  │ │ │ │ │ └── buffer-xor@1.0.3 </tspan>
<tspan x="10" y="7322">  │ │ │ │ ├─┬ browserify-des@1.0.0 </tspan>
<tspan x="10" y="7338">  │ │ │ │ │ └── des.js@1.0.0 </tspan>
<tspan x="10" y="7354">  │ │ │ │ └── evp_bytestokey@1.0.0 </tspan>
<tspan x="10" y="7370">  │ │ │ ├─┬ browserify-sign@4.0.4 </tspan>
<tspan x="10" y="7386">  │ │ │ │ ├── bn.js@4.11.6 </tspan>
<tspan x="10" y="7402">  │ │ │ │ ├── browserify-rsa@4.0.1 </tspan>
<tspan x="10" y="7418">  │ │ │ │ ├─┬ elliptic@6.4.0 </tspan>
<tspan x="10" y="7434">  │ │ │ │ │ ├── brorand@1.1.0 </tspan>
<tspan x="10" y="7450">  │ │ │ │ │ ├── hash.js@1.0.3 </tspan>
<tspan x="10" y="7466">  │ │ │ │ │ ├── hmac-drbg@1.0.1 </tspan>
<tspan x="10" y="7482">  │ │ │ │ │ ├── minimalistic-assert@1.0.0 </tspan>
<tspan x="10" y="7498">  │ │ │ │ │ └── minimalistic-crypto-utils@1.0.1 </tspan>
<tspan x="10" y="7514">  │ │ │ │ └─┬ parse-asn1@5.1.0 </tspan>
<tspan x="10" y="7530">  │ │ │ │   └── asn1.js@4.9.1 </tspan>
<tspan x="10" y="7546">  │ │ │ ├── create-ecdh@4.0.0 </tspan>
<tspan x="10" y="7562">  │ │ │ ├─┬ create-hash@1.1.2 </tspan>
<tspan x="10" y="7578">  │ │ │ │ ├── cipher-base@1.0.3 </tspan>
<tspan x="10" y="7594">  │ │ │ │ ├── ripemd160@1.0.1 </tspan>
<tspan x="10" y="7610">  │ │ │ │ └── sha.js@2.4.8 </tspan>
<tspan x="10" y="7626">  │ │ │ ├── create-hmac@1.1.4 </tspan>
<tspan x="10" y="7642">  │ │ │ ├─┬ diffie-hellman@5.0.2 </tspan>
<tspan x="10" y="7658">  │ │ │ │ └── miller-rabin@4.0.0 </tspan>
<tspan x="10" y="7674">  │ │ │ ├── pbkdf2@3.0.9 </tspan>
<tspan x="10" y="7690">  │ │ │ ├── public-encrypt@4.0.0 </tspan>
<tspan x="10" y="7706">  │ │ │ └── randombytes@2.0.3 </tspan>
<tspan x="10" y="7722">  │ │ ├── domain-browser@1.1.7 </tspan>
<tspan x="10" y="7738">  │ │ ├── events@1.1.1 </tspan>
<tspan x="10" y="7754">  │ │ ├── https-browserify@0.0.1 </tspan>
<tspan x="10" y="7770">  │ │ ├── os-browserify@0.2.1 </tspan>
<tspan x="10" y="7786">  │ │ ├── path-browserify@0.0.0 </tspan>
<tspan x="10" y="7802">  │ │ ├── process@0.11.10 </tspan>
<tspan x="10" y="7818">  │ │ ├── punycode@1.4.1 </tspan>
<tspan x="10" y="7834">  │ │ ├── querystring-es3@0.2.1 </tspan>
<tspan x="10" y="7850">  │ │ ├── stream-browserify@2.0.1 </tspan>
<tspan x="10" y="7866">  │ │ ├─┬ stream-http@2.7.0 </tspan>
<tspan x="10" y="7882">  │ │ │ ├── builtin-status-codes@3.0.0 </tspan>
<tspan x="10" y="7898">  │ │ │ ├── to-arraybuffer@1.0.1 </tspan>
<tspan x="10" y="7914">  │ │ │ └── xtend@4.0.1 </tspan>
<tspan x="10" y="7930">  │ │ ├── string_decoder@0.10.31 </tspan>
<tspan x="10" y="7946">  │ │ ├─┬ timers-browserify@2.0.2 </tspan>
<tspan x="10" y="7962">  │ │ │ └── setimmediate@1.0.5 </tspan>
<tspan x="10" y="7978">  │ │ ├── tty-browserify@0.0.0 </tspan>
<tspan x="10" y="7994">  │ │ ├─┬ url@0.11.0 </tspan>
<tspan x="10" y="8010">  │ │ │ └── punycode@1.3.2 </tspan>
<tspan x="10" y="8026">  │ │ ├─┬ util@0.10.3 </tspan>
<tspan x="10" y="8042">  │ │ │ └── inherits@2.0.1 </tspan>
<tspan x="10" y="8058">  │ │ └─┬ vm-browserify@0.0.4 </tspan>
<tspan x="10" y="8074">  │ │   └── indexof@0.0.1 </tspan>
<tspan x="10" y="8090">  │ ├─┬ supports-color@3.2.3 </tspan>
<tspan x="10" y="8106">  │ │ └── has-flag@1.0.0 </tspan>
<tspan x="10" y="8122">  │ ├── tapable@0.2.6 </tspan>
<tspan x="10" y="8138">  │ ├── watchpack@1.3.1 </tspan>
<tspan x="10" y="8154">  │ ├─┬ webpack-sources@0.2.3 </tspan>
<tspan x="10" y="8170">  │ │ └── source-list-map@1.1.1 </tspan>
<tspan x="10" y="8186">  │ └─┬ yargs@6.6.0 </tspan>
<tspan x="10" y="8202">  │   ├── camelcase@3.0.0 </tspan>
<tspan x="10" y="8218">  │   ├─┬ cliui@3.2.0 </tspan>
<tspan x="10" y="8234">  │   │ └── wrap-ansi@2.1.0 </tspan>
<tspan x="10" y="8250">  │   ├── get-caller-file@1.0.2 </tspan>
<tspan x="10" y="8266">  │   ├─┬ os-locale@1.4.0 </tspan>
<tspan x="10" y="8282">  │   │ └─┬ lcid@1.0.0 </tspan>
<tspan x="10" y="8298">  │   │   └── invert-kv@1.0.0 </tspan>
<tspan x="10" y="8314">  │   ├─┬ read-pkg-up@1.0.1 </tspan>
<tspan x="10" y="8330">  │   │ └─┬ read-pkg@1.1.0 </tspan>
<tspan x="10" y="8346">  │   │   ├─┬ load-json-file@1.1.0 </tspan>
<tspan x="10" y="8362">  │   │   │ ├─┬ parse-json@2.2.0 </tspan>
<tspan x="10" y="8378">  │   │   │ │ └─┬ error-ex@1.3.1 </tspan>
<tspan x="10" y="8394">  │   │   │ │   └── is-arrayish@0.2.1 </tspan>
<tspan x="10" y="8410">  │   │   │ └─┬ strip-bom@2.0.0 </tspan>
<tspan x="10" y="8426">  │   │   │   └── is-utf8@0.2.1 </tspan>
<tspan x="10" y="8442">  │   │   ├─┬ normalize-package-data@2.3.8 </tspan>
<tspan x="10" y="8458">  │   │   │ ├── hosted-git-info@2.4.2 </tspan>
<tspan x="10" y="8474">  │   │   │ ├─┬ is-builtin-module@1.0.0 </tspan>
<tspan x="10" y="8490">  │   │   │ │ └── builtin-modules@1.1.1 </tspan>
<tspan x="10" y="8506">  │   │   │ ├── semver@5.3.0 </tspan>
<tspan x="10" y="8522">  │   │   │ └─┬ validate-npm-package-license@3.0.1 </tspan>
<tspan x="10" y="8538">  │   │   │   ├─┬ spdx-correct@1.0.2 </tspan>
<tspan x="10" y="8554">  │   │   │   │ └── spdx-license-ids@1.2.2 </tspan>
<tspan x="10" y="8570">  │   │   │   └── spdx-expression-parse@1.0.4 </tspan>
<tspan x="10" y="8586">  │   │   └── path-type@1.1.0 </tspan>
<tspan x="10" y="8602">  │   ├── require-directory@2.1.1 </tspan>
<tspan x="10" y="8618">  │   ├── require-main-filename@1.0.1 </tspan>
<tspan x="10" y="8634">  │   ├── set-blocking@2.0.0 </tspan>
<tspan x="10" y="8650">  │   ├─┬ string-width@1.0.2 </tspan>
<tspan x="10" y="8666">  │   │ ├── code-point-at@1.1.0 </tspan>
<tspan x="10" y="8682">  │   │ └─┬ is-fullwidth-code-point@1.0.0 </tspan>
<tspan x="10" y="8698">  │   │   └── number-is-nan@1.0.1 </tspan>
<tspan x="10" y="8714">  │   ├── which-module@1.0.0 </tspan>
<tspan x="10" y="8730">  │   ├── y18n@3.2.1 </tspan>
<tspan x="10" y="8746">  │   └─┬ yargs-parser@4.2.1 </tspan>
<tspan x="10" y="8762">  │     └── camelcase@3.0.0 </tspan>
<tspan x="10" y="8778">  ├─┬ webpack-bundle-analyzer@2.4.0 </tspan>
<tspan x="10" y="8794">  │ ├─┬ express@4.15.2 </tspan>
<tspan x="10" y="8810">  │ │ ├── array-flatten@1.1.1 </tspan>
<tspan x="10" y="8826">  │ │ ├── content-disposition@0.5.2 </tspan>
<tspan x="10" y="8842">  │ │ ├── content-type@1.0.2 </tspan>
<tspan x="10" y="8858">  │ │ ├── cookie@0.3.1 </tspan>
<tspan x="10" y="8874">  │ │ ├── cookie-signature@1.0.6 </tspan>
<tspan x="10" y="8890">  │ │ ├─┬ debug@2.6.1 </tspan>
<tspan x="10" y="8906">  │ │ │ └── ms@0.7.2 </tspan>
<tspan x="10" y="8922">  │ │ ├─┬ finalhandler@1.0.2 </tspan>
<tspan x="10" y="8938">  │ │ │ ├── debug@2.6.4 </tspan>
<tspan x="10" y="8954">  │ │ │ └── unpipe@1.0.0 </tspan>
<tspan x="10" y="8970">  │ │ ├── merge-descriptors@1.0.1 </tspan>
<tspan x="10" y="8986">  │ │ ├── methods@1.1.2 </tspan>
<tspan x="10" y="9002">  │ │ ├── path-to-regexp@0.1.7 </tspan>
<tspan x="10" y="9018">  │ │ ├─┬ proxy-addr@1.1.4 </tspan>
<tspan x="10" y="9034">  │ │ │ ├── forwarded@0.1.0 </tspan>
<tspan x="10" y="9050">  │ │ │ └── ipaddr.js@1.3.0 </tspan>
<tspan x="10" y="9066">  │ │ ├── qs@6.4.0 </tspan>
<tspan x="10" y="9082">  │ │ ├── send@0.15.1 </tspan>
<tspan x="10" y="9098">  │ │ ├── serve-static@1.12.1 </tspan>
<tspan x="10" y="9114">  │ │ ├── setprototypeof@1.0.3 </tspan>
<tspan x="10" y="9130">  │ │ ├─┬ type-is@1.6.15 </tspan>
<tspan x="10" y="9146">  │ │ │ └── media-typer@0.3.0 </tspan>
<tspan x="10" y="9162">  │ │ └── utils-merge@1.0.0 </tspan>
<tspan x="10" y="9178">  │ ├── filesize@3.5.6 </tspan>
<tspan x="10" y="9194">  │ ├─┬ gzip-size@3.0.0 </tspan>
<tspan x="10" y="9210">  │ │ └── duplexer@0.1.1 </tspan>
<tspan x="10" y="9226">  │ └── opener@1.4.3 </tspan>
<tspan x="10" y="9242">  ├─┬ webpack-dev-middleware@1.10.2 </tspan>
<tspan x="10" y="9258">  │ └── range-parser@1.2.0 </tspan>
<tspan x="10" y="9274">  └─┬ webpack-hot-middleware@2.18.0 </tspan>
<tspan x="10" y="9290">    ├── html-entities@1.2.1 </tspan>
<tspan x="10" y="9306">    ├── querystring@0.2.0 </tspan>
<tspan x="10" y="9322">    └─┬ strip-ansi@3.0.1 </tspan>
<tspan x="10" y="9338">      └── ansi-regex@2.1.1</tspan>
</text>
</svg>
